<?xml version="1.0" encoding="UTF-8"?>
<svg width="120px" height="28px" viewBox="0 0 120 28" version="1.1" xmlns="http://www.w3.org/2000/svg" xmlns:xlink="http://www.w3.org/1999/xlink">
    <!-- Generator: Sketch 63.1 (92452) - https://sketch.com -->
    <title>Group 5</title>
    <desc>Created with Sketch.</desc>
    <g id="Contact" stroke="none" stroke-width="1" fill="none" fill-rule="evenodd">
        <g id="About" transform="translate(-205.000000, -49.000000)">
            <g id="top-section">
                <g id="header">
                    <g id="Group-5" transform="translate(205.000000, 49.000000)">
                        <g id="logo-dark">
                            <rect id="Rectangle" stroke="#111518" stroke-width="2.05882353" x="1.02941176" y="1.02941176" width="25.9411765" height="25.9411765" rx="5.49019608"></rect>
                            <rect id="Rectangle" fill="#111518" x="8.23529412" y="8.23529412" width="11.5294118" height="11.5294118" rx="5.76470588"></rect>
                        </g>
                        <path d="M44.3183594,21.234375 C47.84375,21.234375 50.0019531,19.4960938 50.0019531,16.7421875 C50.0019531,14.6035156 48.703125,13.4023438 45.7246094,12.8066406 L44.2304688,12.5039062 C42.5703125,12.171875 41.8867188,11.6347656 41.8867188,10.765625 C41.8867188,9.73046875 42.8632812,9.046875 44.3183594,9.046875 C45.8027344,9.046875 46.8476562,9.76953125 46.9453125,10.9707031 L49.7285156,10.9707031 C49.6796875,8.3828125 47.609375,6.6640625 44.3183594,6.6640625 C41.1835938,6.6640625 38.9375,8.37304688 38.9375,10.9511719 C38.9375,13.0507812 40.3144531,14.3984375 43.1269531,14.9550781 L44.6113281,15.2480469 C46.3789062,15.609375 47.0429688,16.1367188 47.0429688,17.0644531 C47.0429688,18.0996094 45.96875,18.8613281 44.3964844,18.8613281 C42.7949219,18.8613281 41.6035156,18.1582031 41.4179688,16.9765625 L38.6347656,16.9765625 C38.7226562,19.6328125 40.9589844,21.234375 44.3183594,21.234375 Z M54.4257812,21 L54.4257812,11.4882812 L54.5039062,11.4882812 L58.3320312,21 L60.1875,21 L64.015625,11.4882812 L64.09375,11.4882812 L64.09375,21 L66.7207031,21 L66.7207031,6.90820312 L63.3027344,6.90820312 L59.2988281,17.0253906 L59.2207031,17.0253906 L55.2167969,6.90820312 L51.7988281,6.90820312 L51.7988281,21 L54.4257812,21 Z M71.1933594,21 L72.2675781,17.5820312 L77.21875,17.5820312 L78.2929688,21 L81.4277344,21 L76.5253906,6.90820312 L73.0585938,6.90820312 L68.1660156,21 L71.1933594,21 Z M76.5839844,15.375 L72.9023438,15.375 L74.7089844,9.60351562 L74.7773438,9.60351562 L76.5839844,15.375 Z M85.8125,21 L85.8125,15.84375 L88.1757812,15.84375 L90.8027344,21 L94.1425781,21 L91.1738281,15.4042969 C92.7949219,14.7695312 93.7324219,13.2070312 93.7324219,11.4003906 C93.7324219,8.6171875 91.8769531,6.90820312 88.6347656,6.90820312 L82.8632812,6.90820312 L82.8632812,21 L85.8125,21 Z M88.3515625,13.7050781 L85.8125,13.7050781 L85.8125,9.21289062 L88.3222656,9.21289062 C89.7871094,9.21289062 90.7050781,10.0917969 90.7050781,11.4589844 C90.7050781,12.8554688 89.8359375,13.7050781 88.3515625,13.7050781 Z M101.984375,21 L101.984375,9.33984375 L106.066406,9.33984375 L106.066406,6.90820312 L94.9628906,6.90820312 L94.9628906,9.33984375 L99.0351562,9.33984375 L99.0351562,21 L101.984375,21 Z M114.650391,21 L114.650391,15.7363281 L119.5625,6.90820312 L116.398438,6.90820312 L113.234375,12.9238281 L113.166016,12.9238281 L110.011719,6.90820312 L106.798828,6.90820312 L111.701172,15.7363281 L111.701172,21 L114.650391,21 Z" id="SMARTY" fill="#111518" fill-rule="nonzero"></path>
                    </g>
                </g>
            </g>
        </g>
    </g>
</svg>